# Blender v2.90.1 OBJ File: ''
# www.blender.org
mtllib giggle_mesh.mtl
o Plane
v 1.000000 1.000000 0.000000
v -1.000000 1.000000 0.000000
v 1.000000 -1.000000 -0.000000
v -1.000000 -1.000000 -0.000000
v 1.000000 0.000000 0.000000
v 0.000000 1.000000 0.000000
v -1.000000 0.000000 0.000000
v 0.000000 -1.000000 -0.000000
v 0.000000 0.000000 0.000000
v 0.000000 -1.000000 -0.000000
v 1.000000 -1.000000 -0.000000
v 0.000000 0.000000 0.000000
vt 0.500000 0.500000
vt 1.000000 0.500000
vt 1.000000 1.000000
vt 0.000000 1.000000
vt 0.500000 0.500000
vt 0.000000 1.000000
vt 0.000000 0.000000
vt 0.500000 0.000000
vt 1.000000 0.000000
vt 0.500000 1.000000
vt 0.000000 0.500000
vt 0.500000 1.000000
vt 0.000000 0.000000
vt 0.000000 0.000000
vt 0.000000 0.000000
vt 0.000000 0.000000
vn 0.0000 -0.0000 1.0000
usemtl None
s off
f 9/1/1 7/2/1 4/3/1
f 3/4/1 9/1/1 12/5/1 11/6/1
f 1/7/1 6/8/1 9/1/1
f 2/9/1 7/2/1 9/1/1
f 8/10/1 9/1/1 4/3/1
f 5/11/1 9/1/1 3/4/1
f 6/8/1 2/9/1 9/1/1
f 5/11/1 1/7/1 9/1/1
f 12/5/1 10/12/1 11/6/1
f 9/1/1 8/10/1 10/12/1 12/5/1
f 8/13/1 3/14/1 11/15/1 10/16/1
